<svg xmlns="http://www.w3.org/2000/svg" viewBox="0 0 36 36"><defs><style>.a{fill:#9e51ba;}.b{fill:#fff;}</style></defs><g transform="translate(-591 -7267)"><rect class="a" width="36" height="36" transform="translate(591 7267)"/><path class="b" d="M12.4.047A1.614,1.614,0,1,0,13.79,1.435,1.6,1.6,0,0,0,12.4.047ZM12.19,3.859h0a1.587,1.587,0,0,0-1.6,1.6v9.977a1.6,1.6,0,0,0,1.6,1.6h0a1.587,1.587,0,0,0,1.6-1.6V5.459A1.587,1.587,0,0,0,12.19,3.859ZM5.412,10.425,9.13,6.707a1.755,1.755,0,0,0,.188-2.447,1.734,1.734,0,0,0-2.447.188L3.2,8.118V1.6A1.587,1.587,0,0,0,1.6,0,1.587,1.587,0,0,0,0,1.6V15.437a1.587,1.587,0,0,0,1.6,1.6h0a1.587,1.587,0,0,0,1.6-1.6V12.754l3.718,3.671a1.755,1.755,0,0,0,2.447.188h0a1.734,1.734,0,0,0-.188-2.447Z" transform="translate(601.694 7275.91)"/></g></svg>